<svg width="64" height="64" viewBox="0 0 64 64" fill="none" xmlns="http://www.w3.org/2000/svg">
<path d="M41.3333 20.0002L50.6667 10.6668M56 5.3335L50.6667 10.6668L56 5.3335ZM30.3733 30.9602C31.7502 32.3187 32.8448 33.9363 33.594 35.7196C34.3432 37.5029 34.7323 39.4169 34.7387 41.3512C34.7452 43.2855 34.369 45.202 33.6318 46.9903C32.8945 48.7786 31.8108 50.4034 30.4431 51.7712C29.0753 53.139 27.4505 54.2227 25.6621 54.9599C23.8738 55.6972 21.9573 56.0734 20.023 56.0669C18.0887 56.0604 16.1748 55.6714 14.3914 54.9222C12.6081 54.173 10.9906 53.0784 9.632 51.7015C6.96035 48.9353 5.48203 45.2305 5.51545 41.3849C5.54886 37.5394 7.09134 33.8608 9.81066 31.1415C12.53 28.4222 16.2086 26.8797 20.0541 26.8463C23.8997 26.8129 27.6045 28.2912 30.3707 30.9628L30.3733 30.9602ZM30.3733 30.9602L41.3333 20.0002L30.3733 30.9602ZM41.3333 20.0002L49.3333 28.0002L58.6667 18.6668L50.6667 10.6668L41.3333 20.0002Z" stroke="#1978D4" stroke-width="3" stroke-linecap="round" stroke-linejoin="round"/>
</svg>
