<svg width="64" height="64" viewBox="0 0 64 64" fill="none" xmlns="http://www.w3.org/2000/svg">
<path d="M50.6667 29.3333H13.3333C10.3878 29.3333 8 31.7212 8 34.6667V53.3333C8 56.2789 10.3878 58.6667 13.3333 58.6667H50.6667C53.6122 58.6667 56 56.2789 56 53.3333V34.6667C56 31.7212 53.6122 29.3333 50.6667 29.3333Z" stroke="#1978D4" stroke-width="3" stroke-linecap="round" stroke-linejoin="round"/>
<path d="M18.6667 29.3333V18.6667C18.6667 15.1305 20.0715 11.7391 22.572 9.23859C25.0725 6.7381 28.4639 5.33334 32.0001 5.33334C35.5363 5.33334 38.9277 6.7381 41.4282 9.23859C43.9287 11.7391 45.3334 15.1305 45.3334 18.6667V29.3333" stroke="#1978D4" stroke-width="3" stroke-linecap="round" stroke-linejoin="round"/>
</svg>
