<svg width="64" height="64" viewBox="0 0 64 64" fill="none" xmlns="http://www.w3.org/2000/svg">
<path d="M61.3334 50.6667C61.3334 52.0812 60.7715 53.4377 59.7713 54.4379C58.7711 55.4381 57.4146 56 56.0001 56H8.00008C6.58559 56 5.22904 55.4381 4.22885 54.4379C3.22865 53.4377 2.66675 52.0812 2.66675 50.6667V21.3333C2.66675 19.9188 3.22865 18.5623 4.22885 17.5621C5.22904 16.5619 6.58559 16 8.00008 16H18.6667L24.0001 8H40.0001L45.3334 16H56.0001C57.4146 16 58.7711 16.5619 59.7713 17.5621C60.7715 18.5623 61.3334 19.9188 61.3334 21.3333V50.6667Z" stroke="white" stroke-width="2.5" stroke-linecap="round" stroke-linejoin="round"/>
<path d="M31.9999 45.3333C37.891 45.3333 42.6666 40.5577 42.6666 34.6667C42.6666 28.7756 37.891 24 31.9999 24C26.1089 24 21.3333 28.7756 21.3333 34.6667C21.3333 40.5577 26.1089 45.3333 31.9999 45.3333Z" stroke="white" stroke-width="2.5" stroke-linecap="round" stroke-linejoin="round"/>
</svg>
