<svg width="463" height="112" viewBox="0 0 463 112" fill="none" xmlns="http://www.w3.org/2000/svg">
<mask id="mask0" mask-type="alpha" maskUnits="userSpaceOnUse" x="0" y="0" width="463" height="112">
<path d="M0 10C0 4.47715 4.47715 0 10 0H453C458.523 0 463 4.47715 463 10V112H0V10Z" fill="white"/>
</mask>
<g mask="url(#mask0)">
<path d="M15.8051 19.3235L15.8036 19.321C3.25514 -0.875334 -2.60212 -19.7291 -2.95955 -37.2108C-3.31689 -54.6895 1.82282 -70.8318 11.3251 -85.6108C30.3419 -115.188 66.8295 -139.298 111.63 -157.614C201.222 -194.244 323.747 -207.58 405.087 -195.358C503.921 -180.467 565.441 -150.451 596.674 -114.465C612.284 -96.4799 620.331 -77.0027 621.703 -57.158C623.076 -37.3099 617.774 -17.059 606.629 2.47079C584.331 41.5396 538.664 77.6836 476.455 101.798C414.256 125.909 335.559 137.978 247.264 128.931C200.013 123.729 151.942 112.316 110.781 94.1998C69.6129 76.0814 35.4006 51.2781 15.8051 19.3235Z" stroke="white" stroke-opacity="0.15"/>
<path d="M231.805 39.3235L231.804 39.321C219.255 19.1247 213.398 0.270897 213.04 -17.2108C212.683 -34.6895 217.823 -50.8318 227.325 -65.6108C246.342 -95.1877 282.829 -119.298 327.63 -137.614C417.222 -174.244 539.747 -187.58 621.087 -175.358C719.921 -160.467 781.441 -130.451 812.674 -94.4651C828.284 -76.4799 836.331 -57.0027 837.703 -37.158C839.076 -17.3099 833.774 2.94102 822.629 22.4708C800.331 61.5396 754.664 97.6836 692.455 121.798C630.256 145.909 551.559 157.978 463.264 148.931C416.013 143.729 367.942 132.316 326.781 114.2C285.613 96.0814 251.401 71.2781 231.805 39.3235Z" stroke="white" stroke-opacity="0.15"/>
<path d="M339.805 95.3235L339.804 95.321C327.255 75.1247 321.398 56.2709 321.04 38.7892C320.683 21.3105 325.823 5.16822 335.325 -9.6108C354.342 -39.1877 390.829 -63.2978 435.63 -81.6145C525.222 -118.244 647.747 -131.58 729.087 -119.358C827.921 -104.467 889.441 -74.4513 920.674 -38.4651C936.284 -20.4799 944.331 -1.00268 945.703 18.842C947.076 38.6901 941.774 58.941 930.629 78.4708C908.331 117.54 862.664 153.684 800.455 177.798C738.256 201.909 659.559 213.978 571.264 204.931C524.013 199.729 475.942 188.316 434.781 170.2C393.613 152.081 359.401 127.278 339.805 95.3235Z" stroke="white" stroke-opacity="0.15"/>
</g>
</svg>
